<mxfile host="Electron" agent="Mozilla/5.0 (X11; Linux x86_64) AppleWebKit/537.36 (KHTML, like Gecko) draw.io/26.0.4 Chrome/128.0.6613.186 Electron/32.2.5 Safari/537.36" version="26.0.4">
  <diagram name="Page-1" id="9rIf821xmLSYjipyLbEd">
    <mxGraphModel dx="724" dy="457" grid="1" gridSize="10" guides="1" tooltips="1" connect="1" arrows="1" fold="1" page="1" pageScale="1" pageWidth="850" pageHeight="1100" math="0" shadow="0">
      <root>
        <mxCell id="0" />
        <mxCell id="1" parent="0" />
        <mxCell id="ruZKuCJ3cwWAidQZkped-1" value="AWS Account" style="points=[[0,0],[0.25,0],[0.5,0],[0.75,0],[1,0],[1,0.25],[1,0.5],[1,0.75],[1,1],[0.75,1],[0.5,1],[0.25,1],[0,1],[0,0.75],[0,0.5],[0,0.25]];outlineConnect=0;gradientColor=none;html=1;whiteSpace=wrap;fontSize=12;fontStyle=0;container=1;pointerEvents=0;collapsible=0;recursiveResize=0;shape=mxgraph.aws4.group;grIcon=mxgraph.aws4.group_account;strokeColor=#CD2264;fillColor=none;verticalAlign=top;align=left;spacingLeft=30;fontColor=#CD2264;dashed=0;" vertex="1" parent="1">
          <mxGeometry x="50" y="90" width="480" height="310" as="geometry" />
        </mxCell>
        <mxCell id="ruZKuCJ3cwWAidQZkped-2" value="VPC 1" style="points=[[0,0],[0.25,0],[0.5,0],[0.75,0],[1,0],[1,0.25],[1,0.5],[1,0.75],[1,1],[0.75,1],[0.5,1],[0.25,1],[0,1],[0,0.75],[0,0.5],[0,0.25]];outlineConnect=0;gradientColor=none;html=1;whiteSpace=wrap;fontSize=12;fontStyle=0;container=1;pointerEvents=0;collapsible=0;recursiveResize=0;shape=mxgraph.aws4.group;grIcon=mxgraph.aws4.group_vpc2;strokeColor=#8C4FFF;fillColor=none;verticalAlign=top;align=left;spacingLeft=30;fontColor=#AAB7B8;dashed=0;" vertex="1" parent="ruZKuCJ3cwWAidQZkped-1">
          <mxGeometry x="27.75" y="50" width="434.5" height="250" as="geometry" />
        </mxCell>
        <mxCell id="ruZKuCJ3cwWAidQZkped-4" value="" style="outlineConnect=0;dashed=0;verticalLabelPosition=bottom;verticalAlign=top;align=center;html=1;shape=mxgraph.aws3.internet_gateway;fillColor=#F58534;gradientColor=none;" vertex="1" parent="ruZKuCJ3cwWAidQZkped-2">
          <mxGeometry x="110" y="-20" width="49" height="50" as="geometry" />
        </mxCell>
        <mxCell id="ruZKuCJ3cwWAidQZkped-8" value="Public subnet" style="points=[[0,0],[0.25,0],[0.5,0],[0.75,0],[1,0],[1,0.25],[1,0.5],[1,0.75],[1,1],[0.75,1],[0.5,1],[0.25,1],[0,1],[0,0.75],[0,0.5],[0,0.25]];outlineConnect=0;gradientColor=none;html=1;whiteSpace=wrap;fontSize=12;fontStyle=0;container=1;pointerEvents=0;collapsible=0;recursiveResize=0;shape=mxgraph.aws4.group;grIcon=mxgraph.aws4.group_security_group;grStroke=0;strokeColor=#7AA116;fillColor=#F2F6E8;verticalAlign=top;align=left;spacingLeft=30;fontColor=#248814;dashed=0;" vertex="1" parent="ruZKuCJ3cwWAidQZkped-2">
          <mxGeometry x="29" y="70" width="251" height="150" as="geometry" />
        </mxCell>
        <mxCell id="ruZKuCJ3cwWAidQZkped-36" value="" style="outlineConnect=0;dashed=0;verticalLabelPosition=bottom;verticalAlign=top;align=center;html=1;shape=mxgraph.aws3.network_access_controllist;fillColor=#F58534;gradientColor=none;" vertex="1" parent="ruZKuCJ3cwWAidQZkped-8">
          <mxGeometry x="211" y="-20" width="40" height="40" as="geometry" />
        </mxCell>
        <mxCell id="ruZKuCJ3cwWAidQZkped-46" value="Security Group" style="fillColor=none;strokeColor=#5A6C86;dashed=1;verticalAlign=top;fontStyle=0;fontColor=#5A6C86;whiteSpace=wrap;html=1;align=left;" vertex="1" parent="ruZKuCJ3cwWAidQZkped-8">
          <mxGeometry x="121" y="30" width="90" height="100" as="geometry" />
        </mxCell>
        <mxCell id="ruZKuCJ3cwWAidQZkped-58" value="" style="sketch=0;points=[[0,0,0],[0.25,0,0],[0.5,0,0],[0.75,0,0],[1,0,0],[0,1,0],[0.25,1,0],[0.5,1,0],[0.75,1,0],[1,1,0],[0,0.25,0],[0,0.5,0],[0,0.75,0],[1,0.25,0],[1,0.5,0],[1,0.75,0]];outlineConnect=0;fontColor=#232F3E;fillColor=#ED7100;strokeColor=#ffffff;dashed=0;verticalLabelPosition=bottom;verticalAlign=top;align=center;html=1;fontSize=12;fontStyle=0;aspect=fixed;shape=mxgraph.aws4.resourceIcon;resIcon=mxgraph.aws4.ec2;" vertex="1" parent="ruZKuCJ3cwWAidQZkped-8">
          <mxGeometry x="130" y="60" width="60" height="60" as="geometry" />
        </mxCell>
        <mxCell id="ruZKuCJ3cwWAidQZkped-9" style="edgeStyle=orthogonalEdgeStyle;rounded=0;orthogonalLoop=1;jettySize=auto;html=1;entryX=0.5;entryY=1;entryDx=0;entryDy=0;entryPerimeter=0;" edge="1" parent="ruZKuCJ3cwWAidQZkped-2" source="ruZKuCJ3cwWAidQZkped-8" target="ruZKuCJ3cwWAidQZkped-4">
          <mxGeometry relative="1" as="geometry">
            <Array as="points">
              <mxPoint x="110" y="60" />
              <mxPoint x="135" y="60" />
            </Array>
          </mxGeometry>
        </mxCell>
        <mxCell id="ruZKuCJ3cwWAidQZkped-34" value="Internet Gateway" style="text;html=1;align=center;verticalAlign=middle;whiteSpace=wrap;rounded=0;" vertex="1" parent="ruZKuCJ3cwWAidQZkped-2">
          <mxGeometry x="150" y="10" width="70" height="30" as="geometry" />
        </mxCell>
        <mxCell id="ruZKuCJ3cwWAidQZkped-38" value="NACL" style="fillColor=none;strokeColor=#5A6C86;dashed=1;verticalAlign=top;fontStyle=0;fontColor=#5A6C86;whiteSpace=wrap;html=1;align=left;" vertex="1" parent="ruZKuCJ3cwWAidQZkped-2">
          <mxGeometry x="20" y="50" width="290" height="180" as="geometry" />
        </mxCell>
        <mxCell id="ruZKuCJ3cwWAidQZkped-42" value="" style="sketch=0;points=[[0,0,0],[0.25,0,0],[0.5,0,0],[0.75,0,0],[1,0,0],[0,1,0],[0.25,1,0],[0.5,1,0],[0.75,1,0],[1,1,0],[0,0.25,0],[0,0.5,0],[0,0.75,0],[1,0.25,0],[1,0.5,0],[1,0.75,0]];outlineConnect=0;fontColor=#232F3E;fillColor=#ED7100;strokeColor=#ffffff;dashed=0;verticalLabelPosition=bottom;verticalAlign=top;align=center;html=1;fontSize=12;fontStyle=0;aspect=fixed;shape=mxgraph.aws4.resourceIcon;resIcon=mxgraph.aws4.ec2;" vertex="1" parent="ruZKuCJ3cwWAidQZkped-2">
          <mxGeometry x="55" y="130" width="60" height="60" as="geometry" />
        </mxCell>
        <mxCell id="ruZKuCJ3cwWAidQZkped-43" value="Security Group" style="fillColor=none;strokeColor=#5A6C86;dashed=1;verticalAlign=top;fontStyle=0;fontColor=#5A6C86;whiteSpace=wrap;html=1;align=left;" vertex="1" parent="ruZKuCJ3cwWAidQZkped-2">
          <mxGeometry x="40" y="100" width="90" height="100" as="geometry" />
        </mxCell>
        <mxCell id="ruZKuCJ3cwWAidQZkped-5" value="" style="image;aspect=fixed;perimeter=ellipsePerimeter;html=1;align=center;shadow=0;dashed=0;spacingTop=3;image=img/lib/active_directory/internet_cloud.svg;" vertex="1" parent="1">
          <mxGeometry x="290" y="20" width="50" height="31.5" as="geometry" />
        </mxCell>
        <mxCell id="ruZKuCJ3cwWAidQZkped-7" style="edgeStyle=orthogonalEdgeStyle;rounded=0;orthogonalLoop=1;jettySize=auto;html=1;entryX=0;entryY=0.5;entryDx=0;entryDy=0;exitX=0.5;exitY=0;exitDx=0;exitDy=0;exitPerimeter=0;" edge="1" parent="1" source="ruZKuCJ3cwWAidQZkped-4" target="ruZKuCJ3cwWAidQZkped-5">
          <mxGeometry relative="1" as="geometry">
            <Array as="points">
              <mxPoint x="215" y="70" />
              <mxPoint x="270" y="70" />
              <mxPoint x="270" y="36" />
            </Array>
          </mxGeometry>
        </mxCell>
      </root>
    </mxGraphModel>
  </diagram>
</mxfile>
